<?xml version="1.0" encoding="utf-8"?>
<!-- Generator: Adobe Illustrator 18.0.0, SVG Export Plug-In . SVG Version: 6.00 Build 0)  -->
<!DOCTYPE svg PUBLIC "-//W3C//DTD SVG 1.1//EN" "http://www.w3.org/Graphics/SVG/1.1/DTD/svg11.dtd">
<svg version="1.1" id="Layer_4" xmlns="http://www.w3.org/2000/svg" xmlns:xlink="http://www.w3.org/1999/xlink" x="0px" y="0px"
	 viewBox="0 0 1000 240" enable-background="new 0 0 1000 240" xml:space="preserve">
<g id="New_Symbol_3_">
	<polygon fill="#F4738F" points="875,0 750,38.1 625,0 500,38.1 375,0 250,38.1 125,0 0,38.1 0,203.7 125,240 250,203.7 375,240 
		500,203.7 625,240 750,203.7 875,240 1000,203.7 1000,38.1 	"/>
</g>
<g>
	<path fill="#FFFFFF" d="M89.3,159.2l13.3,4.4c0,1.3,0.1,2.6,0.1,3.9c0,12.4-3.1,17.5-9.3,15.3c-9-3.2-13.7-12.9-13.9-29.3V150
		c0-14.5,1.5-25.2,4.5-32c3-6.8,7-9.4,11.9-7.7l1.2,0.4c5.5,2.6,8.3,10.9,8.5,24.8l15.2,5.2c0.1-2.3,0.2-4.6,0.2-6.8
		c0-25.9-7.9-41.7-23.6-47.2c-0.8-0.3-1.7-0.6-2.7-0.9c-18.9-5-29.1,11.9-30.6,50.6c-0.1,3-0.2,5.9-0.2,8.7
		c0,33.5,8.6,53.2,25.7,59.2c18.5,6.5,27.8-4.4,27.8-32.9l6.8,2.2v-20L90,141.1L89.3,159.2z"/>
	<path fill="#FFFFFF" d="M300.4,97.9c-3.4-7.3-7.2-11.7-11.5-13.2c-15.6-5.3-23.5,5.8-23.6,33.5v0.6c0,27.4,6.6,43.4,19.8,48.3
		c6.8,1.8,11.4,0.1,13.9-5.1c0.1,2.6,0.1,5.1,0.1,7.2c0,8.1-0.6,13.3-1.9,15.9c-1.4,2.8-3.8,3.6-7.1,2.4c-0.5-0.2-1.1-0.4-1.7-0.8
		c-3.9-1.9-5.8-5.8-5.8-11.8c0-0.7,0-1.3,0.1-1.9l-15.7-4.5c-0.1,1.3-0.1,2.6-0.1,3.8c0,6,0.9,11.2,2.7,15.5
		c2.1,5.3,6.1,9.7,11.7,13.4c2.7,1.7,5.4,3,8.1,4c3,1.1,6.1,1.6,9.1,1.7c5.8,0.3,10-2.4,12.4-8.1c2.4-5.6,3.7-13.8,4-24.4
		c0.2-10.7,0.3-38.5,0.3-83.4l-14.6-6L300.4,97.9z M299,147.3c-3.3,3-6.3,4-9.1,3c-1.2-0.4-2.4-1.3-3.5-2.6
		c-3.3-3.6-4.9-10.8-4.9-21.7c0-1.3,0-2.7,0.1-4.1c0.4-13.1,2.8-19.6,7.1-19.3c0.7,0,1.4,0.2,2.1,0.4c3.3,1.2,6.1,4.8,8.3,11V147.3z
		"/>
	<path fill="#FFFFFF" d="M353,70.5L336.6,65c0.4,20.9,0.5,43,0.5,66.5c0,16.7-0.1,34-0.3,52l16.6,4c-0.5-26.4-0.8-51.7-0.8-76
		C352.7,97.4,352.8,83.8,353,70.5z"/>
	<path fill="#FFFFFF" d="M535.5,88.9c-5.5-1.9-9.9-0.4-13.1,4.5l-0.5-12.8L506,75.1c0.2,20.8,0.3,40.6,0.3,59.5
		c0,20.7-0.1,40.2-0.4,58.5l17.8,6.3c-0.5-16.6-0.7-30.9-0.7-43c2.8,6.8,6.5,11.1,11,13c0.5,0.2,1.1,0.5,1.6,0.6
		c13.3,4.7,20.1-6.2,20.4-32.5v-1.6C556,109.3,549.2,93.7,535.5,88.9z M534,150.3c-1.1,0.4-2.1,0.4-3.2,0c-2.6-0.9-5.2-4-7.8-9.2
		l-0.3-30.8c2.3-5,5.2-6.8,8.5-5.7c0.4,0.1,0.7,0.3,1.1,0.5c3.9,2.1,6,9.8,6.5,23.3c0,1.4,0.1,2.8,0.1,4.1
		C538.9,143.3,537.2,149.3,534,150.3z"/>
	<path fill="#FFFFFF" d="M591.3,108.5c-5.5-1.9-9.9-0.4-13.1,4.5l-0.5-12.8l-15.8-5.5c0.2,20.8,0.3,40.6,0.3,59.5
		c0,20.7-0.1,40.2-0.4,58.5l17.8,6.3c-0.5-16.6-0.7-30.9-0.7-43c2.8,6.8,6.5,11.1,11,13c0.5,0.2,1.1,0.5,1.6,0.6
		c13.3,4.7,20.1-6.2,20.4-32.5v-1.6C611.8,128.9,604.9,113.3,591.3,108.5z M589.7,169.9c-1.1,0.4-2.1,0.4-3.2,0
		c-2.6-0.9-5.2-4-7.8-9.2l-0.3-30.8c2.3-5,5.2-6.8,8.5-5.7c0.4,0.1,0.7,0.3,1.1,0.5c3.9,2.1,6,9.8,6.5,23.3c0,1.4,0.1,2.8,0.1,4.1
		C594.6,163,593,168.9,589.7,169.9z"/>
	<path fill="#FFFFFF" d="M774.1,85c-15.7-5.5-23.7,5.7-24.2,33.7v2.3c0,26.3,7.4,42.1,22.1,47.3c0.2,0.1,0.4,0.1,0.5,0.1
		c15.5,5.2,23.5-6,24.2-33.7c0-1,0.1-2,0.1-3.1C796.8,105.8,789.2,90.3,774.1,85z M780.4,145.8c-1.3,5.4-3.8,7.4-7.4,6.1l-0.5-0.2
		c-3.9-1.6-6.2-6.5-6.9-14.6c-0.3-3.3-0.4-6.4-0.4-9.5c0-4.6,0.3-9.1,0.9-13.5c1-7.3,2.9-11.1,5.7-11.3c1-0.1,2,0,2.9,0.4
		c1.6,0.5,2.9,1.7,4,3.4c1.8,2.8,2.8,8.7,3.2,17.6c0,1.7,0.1,3.4,0.1,5C782.1,135.8,781.5,141.3,780.4,145.8z"/>
	<path fill="#FFFFFF" d="M869.9,130.5c-1.7-6.3-4.1-11-7.2-14.2c-3.1-3.1-6.4-5.3-9.7-6.5l-0.3-0.1c-3.5-1.2-6.6-1.3-9.5-0.3
		c-2.8,1-4.9,4.2-6,9.8c-1.5-8.1-3.9-13.4-7.4-15.7c-1.4-0.9-2.8-1.7-4.3-2.2c-1.9-0.7-3.8-0.9-5.7-0.7c-3.2,0.4-5.9,3.3-8.3,8.7
		l-0.3-13.2L799,93.6c0.6,23.9,0.9,47.7,0.9,71.5v13.4l15.8,4.8l-0.1-59.9c2.5-2.9,5.2-3.9,7.9-2.9l0.9,0.3c3,1.6,4.6,7.1,4.6,16.7
		v1c0,9.6-0.3,24.9-0.9,45.8l16.7,5.7c-0.5-13.9-0.7-26-0.7-36.3c0-7.6,0.1-14.1,0.4-19.7c1.7-4.3,4.1-5.9,7.2-4.8
		c0.5,0.2,1.1,0.4,1.7,0.8c3.9,2.4,5.9,9.8,5.9,22.4s-0.3,27.7-0.9,45.5l14.4,4.7v-47.5C872.5,144.9,871.6,136.8,869.9,130.5z"/>
	<path fill="#FFFFFF" d="M167.1,102.4l0.7,54.4c-1,4.5-3.4,7.3-7.2,8.4c-3.8,1.1-6.1-2.4-6.8-10.4c-0.2-2.6-0.3-6.3-0.3-11.1
		c0-9.5,0.4-23.2,1.3-41l-16.3,4.6c-0.5,12.7-0.7,23.6-0.7,32.8c0,17.9,0.9,29.5,2.7,34.7c2.6,7.9,8,10.6,16.1,8.3
		c0,0,0.1-0.1,0.2-0.1c8.2-2.4,13.3-7.2,15.1-14.6l0.7,12.6l12.3-5.1c-1.4-29.6-2.1-55.7-2.1-78.2L167.1,102.4z"/>
	<path fill="#FFFFFF" d="M224,87.7c-0.9,0.3-1.9,0.6-2.9,1c-6.9,2.8-11.3,7.7-13.1,14.5l-0.7-12.6L195,95.6
		c1.4,29.6,2.1,56.5,2.1,80.6l16.4-4.8l-0.7-56.8c1-5,3.6-8.2,7.9-9.7l0.3-0.1c3.7-1,5.6,2.6,5.6,11c0,0.8,0,1.7-0.1,2.6l14.9-5.9
		c0-10.7-1.7-18.1-5-22.1C233.5,87.1,229.4,86.2,224,87.7z"/>
	<path fill="#FFFFFF" d="M397,106.1c-14.5,4.1-22,19.7-22.4,46.9v2.4c0,25.2,7.1,35.8,21.2,31.8c0.1,0,0.3-0.1,0.5-0.2
		c14.9-4.5,22.3-16.7,22.3-36.6l-15.9,4.9c0.2,1.7,0.3,3.2,0.3,4.6c0,6.6-1.9,10.6-5.8,12.1l-0.5,0.1c-4.4,1.2-6.6-4.9-6.6-18.3
		l29.9-8.5c0.2-3.4,0.3-6.6,0.3-9.5C420.2,111.6,412.5,101.7,397,106.1z M403.5,135.4l-15.1,4.3c0.5-11,3.3-17.1,8.2-18.5
		c4.6-1.3,6.9,2.8,6.9,12.4V135.4z"/>
	<path fill="#FFFFFF" d="M445.3,57.2c-5.2,32.6-12,72.5-20.4,119.6l17.6-2.1l5.6-33.7L469,135l5.4,28.3l17.1-8.9
		c-7.9-39.2-15-74.1-21.2-104.7L445.3,57.2z M446.8,119.7c2.8-15,6.3-29.7,10.3-44.1c5.3,14.3,9.1,26.8,11.4,37.4L446.8,119.7z"/>
	<path fill="#FFFFFF" d="M651.9,143c-5.4-1.1-9.5-2.5-12.3-4.2c-2-1.2-2.9-3.1-2.9-5.5c0-1,0.2-2.1,0.5-3.5c1-3.8,3-6.1,6-7
		c0.3-0.1,0.6-0.1,0.9-0.2c2.9-0.4,4.3,2,4.3,7.2c0,1.1-0.1,2.3-0.2,3.7l14.3-4.4c0.2-1.8,0.3-3.6,0.3-5.3c0-3.5-0.5-6.6-1.6-9.1
		c-1.6-3.7-4.5-6.2-8.6-7.2c-3-0.8-6.5-0.6-10.5,0.5c-1.5,0.4-3.1,1-4.7,1.6c-6,2.5-10.4,7.1-13.4,13.7c-1.9,4.3-2.9,8.7-2.9,13.1
		c0,2.4,0.3,4.8,0.9,7.3c1.6,7,6.4,10.9,14.3,11.8c7.9,0.9,12,3.9,12.2,9v0.6c0,4.7-2.1,7.6-6.2,8.7l-0.3,0.1
		c-4.2,1.1-6.4-2.4-6.4-10.5v-1l-15.3,5.2c0.1,12,2.8,19.2,8.2,21.5c4.2,1.8,8.7,2,13.7,0.6c1.4-0.4,2.8-0.9,4.2-1.6
		c6.6-2.9,11.4-8,14.5-15.3c2-4.6,2.9-8.9,2.9-12.9c0-2.4-0.3-4.6-1-6.8C661,147.5,657.3,144.1,651.9,143z"/>
	<path fill="#FFFFFF" d="M685.4,157.9c-1.9-1.7-4.2-2.2-7-1.4c-2.7,0.8-5,2.5-6.9,5.3c-1.9,2.8-2.9,5.8-2.9,9c0,3.1,1,5.6,2.9,7.3
		c1.9,1.7,4.2,2.2,6.9,1.4c2.7-0.8,5-2.6,7-5.3c1.9-2.8,2.9-5.8,2.9-8.9C688.3,162.1,687.3,159.6,685.4,157.9z"/>
	<path fill="#FFFFFF" d="M721.3,139.4c0,6.6-1.9,10.6-5.8,12.1l-0.4,0.1c-4.5,1.3-6.8-6.4-7.1-23.1v-2.6c0-15.5,2.3-23.9,7-25.2
		c4.6-1.3,6.9,2.8,6.9,12.4v1.9l14.4-5.3c0-1.1,0.1-2.1,0.1-3.2c0-18.1-6.7-25.3-20.2-21.5l-0.5,0.2c-14.6,4.4-22.2,20.2-22.6,47.4
		v2.4c0,25.2,7.1,35.8,21.2,31.8c0.1,0,0.3-0.1,0.5-0.2c14.9-4.5,22.3-16.2,22.3-35.1l-15.9,3.3C721.2,136.4,721.3,138,721.3,139.4z
		"/>
</g>
<g>
	<path fill="#FFFFFF" d="M923.6,154.6c-5.5,1.6-11.6,0.5-11.6,0.5l3.9,31l-1.7,29.2l8.9-2.7l-0.2-53.2c0,0-0.3-2,1.1-2.5
		c1.4-0.5,0.9,1.7,0.9,1.7l-0.2,53.7l9.1-2.6l-1.8-28.7l4.4-33C936.5,148,929.2,153,923.6,154.6z"/>
	<path fill="#FFFFFF" d="M924.2,108.8c8.8-2.6,16-11.9,16-20.7s-7.2-14-16-11.5c-8.8,2.6-16,11.9-16,20.7S915.4,111.4,924.2,108.8z"
		/>
	<path fill="#FFFFFF" d="M956.2,139.3c-6.1,1.8-12.1,1.4-12.1,1.4l0.9,44.6l-0.9,21.3l11.5-3.4l-0.2-52.7c0,0-0.4-2.1,1.3-2.7
		c1.6-0.5,1,1.8,1,1.8l-0.2,53.2l11.7-3.4l-1.1-21.3l1.6-45C969.7,133.3,962.4,137.5,956.2,139.3z"/>
	<path fill="#FFFFFF" d="M969.2,98.9l6.7,11.8l2.3,15.7l4.1-1.8l-1.2-17c0,0-9.4-20.1-11.7-19.4c-4.2,1.2-5.1,2.1-12.5,4.3
		c-7.5,2.2-8.3,1.8-12.5,3c-1.2,0.3-3.5,7-5.5,13.3c-1.1-1.6-2.2-2.6-3.3-2.3c-3.8,1.1-4.6,3.6-11.5,5.6c-0.1,0-0.2,0.1-0.2,0.1
		c-0.1,0-0.2,0.1-0.2,0.1c-6.8,2-7.7,0-11.5,1.1c-3.8,1.1-11,19.6-11,22.1c0,2.5,10.2,7.9,10.2,7.9l4.2-0.4l-2.8,10.8
		c0,0,5.1,0.9,11.2-0.8c6.1-1.9,12-5.9,12-5.9l-3.4-9.2l3-3.2c0,0,0.3-0.4,0.7-0.9l0.4,4.2l4.1-0.5l-0.2-8.6
		c1.8-2.3,3.4-4.6,3.4-5.7c0-1-0.8-4.3-2-7.6l2.5-9.3l-0.5,24.2l-0.2,6.4c0,0,6.5,0.6,13-1.1c0.1,0,0.1,0,0.2-0.1
		c0.1,0,0.1,0,0.2-0.1c6.6-2.1,13-6.5,13-6.5l-0.2-6.3L969.2,98.9z M918.3,130.8c-1.3,3.4-4.9,6-8,5.6c-3-0.4-4.5-3.6-3.2-7.2
		c1.3-3.4,4.9-6,8-5.6C918.1,124.2,919.6,127.3,918.3,130.8z M923.5,138.2l-0.3,0c-3-0.4-4.5-3.6-3.2-7.2c1.2-3.2,4.4-5.7,7.4-5.6
		c0.2,0,0.4,0,0.6,0l5.4,0.7c0.7,0.1,1.3,0.4,1.8,0.7L923.5,138.2z"/>
	<path fill="#FFFFFF" d="M957,89c9.7-2.8,17.6-13.1,17.6-22.9c0-9.8-7.9-15.5-17.6-12.7c-9.7,2.8-17.6,13.1-17.6,22.9
		S947.2,91.9,957,89z"/>
	<path fill="#FFFFFF" d="M980.3,167c-2.8,0.8-5.5,0.6-5.5,0.6l0.5,20.3l-0.5,9.7l5.3-1.5l-0.1-24.1c0,0-0.2-1,0.6-1.2
		c0.7-0.2,0.5,0.8,0.5,0.8l-0.1,24.3l5.4-1.6l-0.6-9.7l0.7-20.5C986.4,164.3,983,166.2,980.3,167z"/>
	<path fill="#FFFFFF" d="M991.5,152.5c0,0-4.3-9.2-5.4-8.9c-1.9,0.6-2.3,1-5.7,1.9s-3.8,0.8-5.7,1.4c-1.1,0.3-4.2,11.6-4.2,11.6
		l0.6,7.7l1.8-0.3l-0.2-7.4l1.8-6.9l-0.2,11l-0.1,2.9c0,0,3,0.3,5.9-0.5c0,0,0,0,0.1,0c0,0,0,0,0.1,0c3-1,5.9-2.9,5.9-2.9l-0.1-2.9
		l-0.2-10.9l3,5.4l1,7.2l1.8-0.8L991.5,152.5z"/>
	<path fill="#FFFFFF" d="M972.5,138.2c0,4.5,3.6,7.1,8,5.8s8-6,8-10.4s-3.6-7.1-8-5.8S972.5,133.8,972.5,138.2z"/>
	<path fill="#FFFFFF" d="M904.2,186c-1.6,0.5-1.9,0.7-4.8,1.6c-2.9,0.8-3.1,0.7-4.8,1.2c-0.9,0.3-3.5,7.7-3.5,7.7l0.6,5l1.6-0.3
		l-0.1-4.8l1.6-4.6l-0.2,7.1l-2.7,9.4c0,0,3.9,0.6,7.7-0.5c3.8-1.1,7.6-4,7.6-4l-2.7-7.9l-0.2-7l2.5,3.4l0.9,4.6l1.6-0.6l-0.5-5
		C908.7,191.4,905.1,185.8,904.2,186z"/>
	<path fill="#FFFFFF" d="M899.4,186.6c3.7-1.1,6.7-5,6.7-8.8c0-3.8-3-5.9-6.7-4.8s-6.7,5-6.7,8.8S895.7,187.7,899.4,186.6z"/>
	<path fill="#FFFFFF" d="M910.1,178.8c-0.6-1.5,2.6-5.4,0.7-6.7c-2-1.5-5.9,1.5-5.9,1.5s1.8,0.8,2.5,2c0.6,1.3-1,4.1-0.6,5.4
		c1.6,3.5,6.6-0.7,6.6-0.7S910.6,180.2,910.1,178.8z"/>
	<path fill="#FFFFFF" d="M890.6,180.2c0.6-1.7,3.3-3.3,3.3-3.3s-5-1.3-6.6,3.1c-0.6,1.5,1.2,3.4,0.6,5.1c-0.6,1.6-2.5,3.4-2.5,3.4
		s3.9,0.6,5.9-1.9C893.2,184.2,890,182,890.6,180.2z"/>
	<polygon fill="#FFFFFF" points="894.7,220.7 896,220.3 898.2,208.8 894.7,209 	"/>
	<polygon fill="#FFFFFF" points="903.1,218.3 904.4,217.9 904.4,206.2 900.9,208 	"/>
</g>
</svg>
